TITLE ""
FILE "1Q_t_0940-0948.mp3" MP3
  TRACK 01 AUDIO
    TITLE "1Q_t_0940-0948_01"
    INDEX 01 00:00:00
  TRACK 02 AUDIO
    TITLE "1Q_t_0940-0948_02"
    INDEX 01 00:01:29
  TRACK 03 AUDIO
    TITLE "1Q_t_0940-0948_03"
    INDEX 01 00:01:37
  TRACK 04 AUDIO
    TITLE "1Q_t_0940-0948_04"
    INDEX 01 00:07:63
  TRACK 05 AUDIO
    TITLE "1Q_t_0940-0948_05"
    INDEX 01 00:07:69
  TRACK 06 AUDIO
    TITLE "1Q_t_0940-0948_06"
    INDEX 01 00:12:12
  TRACK 07 AUDIO
    TITLE "1Q_t_0940-0948_07"
    INDEX 01 00:12:61
  TRACK 08 AUDIO
    TITLE "1Q_t_0940-0948_08"
    INDEX 01 00:13:72
  TRACK 09 AUDIO
    TITLE "1Q_t_0940-0948_09"
    INDEX 01 00:14:08
  TRACK 10 AUDIO
    TITLE "1Q_t_0940-0948_10"
    INDEX 01 00:17:09
  TRACK 11 AUDIO
    TITLE "1Q_t_0940-0948_11"
    INDEX 01 00:17:17
  TRACK 12 AUDIO
    TITLE "1Q_t_0940-0948_12"
    INDEX 01 00:22:55
  TRACK 13 AUDIO
    TITLE "1Q_t_0940-0948_13"
    INDEX 01 00:23:25
  TRACK 14 AUDIO
    TITLE "1Q_t_0940-0948_14"
    INDEX 01 00:24:46
  TRACK 15 AUDIO
    TITLE "1Q_t_0940-0948_15"
    INDEX 01 00:24:56
  TRACK 16 AUDIO
    TITLE "1Q_t_0940-0948_16"
    INDEX 01 00:26:31
  TRACK 17 AUDIO
    TITLE "1Q_t_0940-0948_17"
    INDEX 01 00:26:37
  TRACK 18 AUDIO
    TITLE "1Q_t_0940-0948_18"
    INDEX 01 00:31:17
  TRACK 19 AUDIO
    TITLE "1Q_t_0940-0948_19"
    INDEX 01 00:31:64
  TRACK 20 AUDIO
    TITLE "1Q_t_0940-0948_20"
    INDEX 01 00:32:63
  TRACK 21 AUDIO
    TITLE "1Q_t_0940-0948_21"
    INDEX 01 00:32:71
  TRACK 22 AUDIO
    TITLE "1Q_t_0940-0948_22"
    INDEX 01 00:35:46
  TRACK 23 AUDIO
    TITLE "1Q_t_0940-0948_23"
    INDEX 01 00:35:54
  TRACK 24 AUDIO
    TITLE "1Q_t_0940-0948_24"
    INDEX 01 00:40:49
  TRACK 25 AUDIO
    TITLE "1Q_t_0940-0948_25"
    INDEX 01 00:41:21
  TRACK 26 AUDIO
    TITLE "1Q_t_0940-0948_26"
    INDEX 01 00:42:28
  TRACK 27 AUDIO
    TITLE "1Q_t_0940-0948_27"
    INDEX 01 00:42:71
  TRACK 28 AUDIO
    TITLE "1Q_t_0940-0948_28"
    INDEX 01 00:44:23
  TRACK 29 AUDIO
    TITLE "1Q_t_0940-0948_29"
    INDEX 01 00:44:33
  TRACK 30 AUDIO
    TITLE "1Q_t_0940-0948_30"
    INDEX 01 00:45:40
  TRACK 31 AUDIO
    TITLE "1Q_t_0940-0948_31"
    INDEX 01 00:45:48
  TRACK 32 AUDIO
    TITLE "1Q_t_0940-0948_32"
    INDEX 01 00:52:05
  TRACK 33 AUDIO
    TITLE "1Q_t_0940-0948_33"
    INDEX 01 00:52:50
  TRACK 34 AUDIO
    TITLE "1Q_t_0940-0948_34"
    INDEX 01 00:54:06
  TRACK 35 AUDIO
    TITLE "1Q_t_0940-0948_35"
    INDEX 01 00:54:16
  TRACK 36 AUDIO
    TITLE "1Q_t_0940-0948_36"
    INDEX 01 00:55:64
  TRACK 37 AUDIO
    TITLE "1Q_t_0940-0948_37"
    INDEX 01 00:55:72
  TRACK 38 AUDIO
    TITLE "1Q_t_0940-0948_38"
    INDEX 01 01:03:38
  TRACK 39 AUDIO
    TITLE "1Q_t_0940-0948_39"
    INDEX 01 01:04:08
  TRACK 40 AUDIO
    TITLE "1Q_t_0940-0948_40"
    INDEX 01 01:05:22
  TRACK 41 AUDIO
    TITLE "1Q_t_0940-0948_41"
    INDEX 01 01:05:29
  TRACK 42 AUDIO
    TITLE "1Q_t_0940-0948_42"
    INDEX 01 01:06:44
  TRACK 43 AUDIO
    TITLE "1Q_t_0940-0948_43"
    INDEX 01 01:06:52
  TRACK 44 AUDIO
    TITLE "1Q_t_0940-0948_44"
    INDEX 01 01:11:24
  TRACK 45 AUDIO
    TITLE "1Q_t_0940-0948_45"
    INDEX 01 01:11:69
  TRACK 46 AUDIO
    TITLE "1Q_t_0940-0948_46"
    INDEX 01 01:13:39
  TRACK 47 AUDIO
    TITLE "1Q_t_0940-0948_47"
    INDEX 01 01:13:45
  TRACK 48 AUDIO
    TITLE "1Q_t_0940-0948_48"
    INDEX 01 01:15:26
  TRACK 49 AUDIO
    TITLE "1Q_t_0940-0948_49"
    INDEX 01 01:15:34
  TRACK 50 AUDIO
    TITLE "1Q_t_0940-0948_50"
    INDEX 01 01:21:34
  TRACK 51 AUDIO
    TITLE "1Q_t_0940-0948_51"
    INDEX 01 01:22:06
  TRACK 52 AUDIO
    TITLE "1Q_t_0940-0948_52"
    INDEX 01 01:23:04
  TRACK 53 AUDIO
    TITLE "1Q_t_0940-0948_53"
    INDEX 01 01:23:16
  TRACK 54 AUDIO
    TITLE "1Q_t_0940-0948_54"
    INDEX 01 01:24:13
  TRACK 55 AUDIO
    TITLE "1Q_t_0940-0948_55"
    INDEX 01 01:24:21
  TRACK 56 AUDIO
    TITLE "1Q_t_0940-0948_56"
    INDEX 01 01:28:70
